<?xml version="1.0" standalone="no"?>
<!DOCTYPE svg PUBLIC "-//W3C//DTD SVG 20010904//EN"
 "http://www.w3.org/TR/2001/REC-SVG-20010904/DTD/svg10.dtd">
<svg version="1.0" xmlns="http://www.w3.org/2000/svg"
 width="78.000000pt" height="78.000000pt" viewBox="0 0 78.000000 78.000000"
 preserveAspectRatio="xMidYMid meet">
<metadata>
Created by potrace 1.14, written by Peter Selinger 2001-2017
</metadata>
<g transform="translate(0.000000,78.000000) scale(0.100000,-0.100000)"
fill="#000000" stroke="none">
<path d="M335 629 c-51 -10 -124 -42 -155 -69 -14 -12 -32 -19 -42 -17 -9 3
-37 0 -62 -5 -38 -8 -45 -13 -42 -30 3 -23 43 -61 56 -53 4 2 7 -28 7 -68 0
-75 20 -134 59 -169 35 -30 115 -67 162 -74 26 -3 57 -16 70 -28 l24 -21 18
23 c10 12 26 22 37 22 29 1 126 44 167 75 75 57 104 148 76 244 -8 30 -7 37
15 57 41 38 37 41 -75 60 -14 3 -51 16 -82 30 -62 27 -161 37 -233 23z m235
-59 c3 0 -2 -5 -11 -10 -10 -6 -30 -5 -55 2 -48 14 -48 14 -40 27 4 6 23 5 54
-4 26 -8 49 -15 52 -15z m-230 12 c0 -16 -102 -62 -117 -53 -12 6 -3 14 38 34
56 27 79 33 79 19z m25 -52 c-3 -5 -14 -10 -24 -10 -9 0 -23 -6 -30 -12 -11
-11 -12 -10 -6 0 6 12 39 30 58 31 5 1 5 -3 2 -9z m125 -12 c0 -5 -9 -4 -20 2
-11 6 -20 12 -20 14 0 2 9 2 20 -1 11 -3 20 -9 20 -15z m-57 -20 c12 -6 28
-19 35 -30 7 -10 20 -18 28 -18 14 0 34 -38 34 -65 0 -8 -14 -22 -31 -30 -28
-15 -32 -15 -48 -1 -22 20 -60 20 -82 0 -15 -14 -21 -14 -53 0 -42 17 -40 33
8 78 26 23 28 29 16 37 -17 12 -14 15 25 29 40 14 43 14 68 0z m248 -81 c6
-40 -2 -62 -22 -55 -12 4 -21 73 -11 91 9 18 27 -2 33 -36z m-91 -19 c0 -37
-2 -40 -14 -28 -8 8 -18 27 -21 43 -6 23 -4 27 14 27 18 0 21 -6 21 -42z
m-419 12 c18 0 10 -65 -10 -77 -16 -10 -20 -9 -25 10 -3 12 -6 35 -6 51 0 22
4 27 16 22 9 -3 20 -6 25 -6z m78 -46 c-11 -14 -13 -14 -21 0 -10 18 -1 39 13
31 5 -4 10 0 10 7 1 7 3 5 6 -5 3 -10 -1 -25 -8 -33z m304 -38 c17 -13 16 -16
-20 -40 -21 -14 -41 -26 -45 -26 -18 0 -7 50 14 64 27 19 28 19 51 2z m-229
-11 c23 -18 30 -59 9 -50 -8 3 -20 5 -26 5 -7 0 -21 7 -31 15 -20 15 -20 15 0
30 24 18 24 18 48 0z m280 -64 c8 -12 -91 -63 -116 -59 -17 2 -10 10 37 35 66
35 71 37 79 24z m-296 -36 c23 -9 42 -22 42 -27 0 -13 -65 -1 -104 19 -22 12
-26 17 -15 24 8 5 19 7 24 5 6 -2 29 -12 53 -21z"/>
</g>
</svg>
